<?xml version="1.0" encoding="utf-8"?>
<!-- Generator: Adobe Illustrator 25.0.1, SVG Export Plug-In . SVG Version: 6.00 Build 0)  -->
<svg version="1.0" id="katman_1" xmlns="http://www.w3.org/2000/svg" xmlns:xlink="http://www.w3.org/1999/xlink" x="0px" y="0px"
	 viewBox="0 0 800 600" style="enable-background:new 0 0 800 600;" xml:space="preserve">
<style type="text/css">
	.st0{fill:#2367AC;}
	.st1{fill:#FFFFFF;}
	.st2{fill:none;}
</style>
<g id="Mask">
	<path id="path-1" class="st0" d="M360.7,39.4h81.7c27.1,0,40.6,0,55.2,4.6c15.9,5.8,28.5,18.3,34.3,34.3
		c4.6,14.6,4.6,28.1,4.6,55.2v81.7c0,27.1,0,40.6-4.6,55.2c-5.8,15.9-18.3,28.5-34.3,34.3c-14.6,4.6-28.1,4.6-55.2,4.6h-81.7
		c-27.1,0-40.6,0-55.2-4.6c-15.9-5.8-28.5-18.3-34.3-34.3c-4.6-14.6-4.6-28.1-4.6-55.2v-81.7c0-27.1,0-40.6,4.6-55.2
		c5.8-15.9,18.3-28.5,34.3-34.3C320,39.4,333.6,39.4,360.7,39.4L360.7,39.4"/>
</g>
<g id="Fill-1">
	<path id="path-4" class="st1" d="M410.3,262.7c-50.4,0-87.9-38.8-87.9-87.8v-0.5c0-48.5,36.7-88.3,89.4-88.3
		c32.3,0,51.7,10.7,67.6,26.3l-24,27.6c-13.2-11.9-26.7-19.3-43.8-19.3c-28.9,0-49.7,23.9-49.7,53.2v0.5c0,29.3,20.3,53.7,49.7,53.7
		c19.6,0,31.6-7.8,45-20l24,24.2C463,251,443.4,262.7,410.3,262.7"/>
	<path id="path-4-2" class="st1" d="M410.3,262.7c-50.4,0-87.9-38.8-87.9-87.8v-0.5c0-48.5,36.7-88.3,89.4-88.3
		c32.3,0,51.7,10.7,67.6,26.3l-24,27.6c-13.2-11.9-26.7-19.3-43.8-19.3c-28.9,0-49.7,23.9-49.7,53.2v0.5c0,29.3,20.3,53.7,49.7,53.7
		c19.6,0,31.6-7.8,45-20l24,24.2C463,251,443.4,262.7,410.3,262.7"/>
</g>
<path class="st0" d="M189.1,541.2c-45,0-78.3-34.5-78.3-78.2v-0.4c0-43.2,32.7-78.6,79.6-78.6c28.8,0,46,9.6,60.2,23.5l-21.4,24.6
	c-11.8-10.6-23.8-17.2-39.1-17.2c-25.7,0-44.3,21.3-44.3,47.4v0.4c0,26.1,18.1,47.8,44.3,47.8c17.5,0,28.1-7,40.1-17.8l21.4,21.5
	C236,530.7,218.5,541.1,189.1,541.2 M254.7,382.2h33.2v158.6h-33.1L254.7,382.2z M349.4,446.4c-13.8,0-22.7,9.8-25.3,24.8h50
	C372.1,456.4,363.4,446.4,349.4,446.4 M406,491.8h-81.4c3.3,15,13.8,22.8,28.6,22.8c11.1,0,19.2-3.5,28.4-11.9l19,16.7
	c-10.9,13.5-26.6,21.7-47.8,21.7c-35.1,0-61.1-24.6-61.1-60.2v-0.4c0-33.2,23.8-60.6,57.8-60.6c39.1,0,56.9,30.2,56.9,63.2v0.4
	C406.4,486.9,406.2,488.8,406,491.8 M469.4,540.6h-30.1l-46-117.3h35.1l26.2,78l26.4-78h34.5L469.4,540.6 M558.5,446.4
	c-13.7,0-22.7,9.8-25.3,24.8h50C581.2,456.4,572.4,446.4,558.5,446.4 M615,491.8h-81.4c3.3,15,13.8,22.8,28.6,22.8
	c11.1,0,19.2-3.5,28.4-11.9l19,16.7c-10.9,13.5-26.6,21.7-47.8,21.7c-35.1,0-61.1-24.6-61.1-60.2v-0.4c0-33.2,23.8-60.6,57.8-60.6
	c39.1,0,56.9,30.2,56.9,63.2v0.4C615.4,486.9,615.2,488.8,615,491.8 M687,456.8c-22,0-35.6,13.2-35.6,41.1v43h-33.1V424.4h33.2v23.5
	c6.8-16.1,17.7-26.5,37.3-25.6v34.5L687,456.8"/>
<rect x="88.7" y="362.8" class="st2" width="622" height="197.7"/>
</svg>
